PathFileType	4	(X/Y/Z)	/Users/itak/Documents/Research/Walk-IL/dataset/trc/00324_00011.trc
DataRate	CameraRate	NumFrames	NumMarkers	Units	OrigDataRate	OrigDataStartFrame	OrigNumFrames
100.000000	100.000000	4	56	mm	100.000000	180	480
Frame#	Time	LPSI			L3			STRN			T10			C7			CLAV			RBAK			LBAK			LSHO			LUPA			LAEL			LAOL			LWTS			LWPS			LFRA			LHPS			LHTS			RSHO			RUPA			RAEL			RAOL			RWTS			RWPS			RFRA			RIFD			RHTS			RHPS			RBHD			LFHD			RFHD			LBHD			LHIP			RASI			LASI			LKNE			LTHI			LANK			LTIP			LTOE			LMT1			LMT5			LHEE			RKNE			RANK			RTIP			RTOE			RMT1			RMT5			RHEE			RPSI			LIFD			RHIP			RTHI			*53			*54			*55			
		X1	Y1	Z1	X2	Y2	Z2	X3	Y3	Z3	X4	Y4	Z4	X5	Y5	Z5	X6	Y6	Z6	X7	Y7	Z7	X8	Y8	Z8	X9	Y9	Z9	X10	Y10	Z10	X11	Y11	Z11	X12	Y12	Z12	X13	Y13	Z13	X14	Y14	Z14	X15	Y15	Z15	X16	Y16	Z16	X17	Y17	Z17	X18	Y18	Z18	X19	Y19	Z19	X20	Y20	Z20	X21	Y21	Z21	X22	Y22	Z22	X23	Y23	Z23	X24	Y24	Z24	X25	Y25	Z25	X26	Y26	Z26	X27	Y27	Z27	X28	Y28	Z28	X29	Y29	Z29	X30	Y30	Z30	X31	Y31	Z31	X32	Y32	Z32	X33	Y33	Z33	X34	Y34	Z34	X35	Y35	Z35	X36	Y36	Z36	X37	Y37	Z37	X38	Y38	Z38	X39	Y39	Z39	X40	Y40	Z40	X41	Y41	Z41	X42	Y42	Z42	X43	Y43	Z43	X44	Y44	Z44	X45	Y45	Z45	X46	Y46	Z46	X47	Y47	Z47	X48	Y48	Z48	X49	Y49	Z49	X50	Y50	Z50	X51	Y51	Z51	X52	Y52	Z52	X53	Y53	Z53	X54	Y54	Z54	X55	Y55	Z55	X56	Y56	Z56	

181	1.8	-986.4652099609375	977.1151733398438	-25.03606224060059	-988.27783203125	1036.360717773438	36.20226669311523	-759.7175903320312	1209.3916015625	32.86201858520508	-992.7262573242188	1154.284790039062	20.49394798278809	-942.4071044921875	1400.851196289062	-0.6130996942520142	-793.5471801757812	1334.039916992188	20.90130233764648	-996.2354125976562	1265.11474609375	71.37381744384766	-943.3642578125	1360.011474609375	-102.4459991455078	-851.4859619140625	1377.254516601562	-147.8506317138672	-857.0280151367188	1258.577026367188	-219.4228057861328	-833.231201171875	1053.672241210938	-231.8411102294922	-904.9379272460938	1038.973754882812	-189.2834320068359	-740.196044921875	814.3972778320312	-172.7265930175781	-771.2503662109375	801.4336547851562	-232.6938018798828	-815.6478271484375	949.5556640625	-235.6201782226562	-772.1412353515625	730.7930908203125	-225.0334777832031	-722.94384765625	736.5986328125	-186.0243072509766	-897.612060546875	1396.59130859375	165.6493225097656	-914.9290771484375	1338.119750976562	234.1280212402344	-917.6378784179688	1075.18359375	297.1024475097656	-947.6876831054688	1059.712646484375	208.5940856933594	-779.6244506835938	862.8104858398438	273.0679626464844	-816.6356201171875	843.5108642578125	337.2454223632812	-889.4918823242188	1009.499877929688	314.2353210449219	-740.2185668945312	694.345703125	285.0397033691406	-738.0130004882812	767.11279296875	289.8210144042969	-789.44140625	761.8898315429688	335.33935546875	-910.5186157226562	1599.841186523438	89.21676635742188	-744.2152099609375	1619.422607421875	-38.16816711425781	-750.408447265625	1618.838623046875	63.19509124755859	-928.6519165039062	1594.012817382812	-55.68764495849609	-899.3031616210938	927.0355224609375	-132.2383270263672	-805.9763793945312	943.0051879882812	172.5272521972656	-780.84619140625	952.7833862304688	-69.68560028076172	-800.174560546875	466.444580078125	-90.70042419433594	-819.2036743164062	607.3910522460938	-112.6610946655273	-893.9970092773438	45.05988693237305	-47.43720626831055	-843.3070068359375	246.123291015625	-80.71430206298828	-686.0796508789062	51.81869888305664	3.24495530128479	-752.3607177734375	38.47700881958008	49.24541473388672	-769.0300903320312	41.86719512939453	-64.03840637207031	-923.23681640625	43.85906600952148	22.61053657531738	-780.0425415039062	468.6575012207031	196.3064727783203	-1120.9443359375	224.0251617431641	159.9958343505859	-847.9281005859375	369.4640502929688	186.0731506347656	-1026.3525390625	56.64876556396484	110.1396102905273	-1060.322143554688	101.5914535522461	69.37000274658203	-1091.013061523438	127.0165939331055	180.1306762695312	-1138.04150390625	269.8152770996094	111.0394287109375	-987.90283203125	964.67578125	103.9419631958008	-729.333984375	654.8027954101562	-163.000244140625	-909.3467407226562	906.1849975585938	211.5341186523438	-800.3931274414062	710.3233642578125	215.1426391601562	nan	nan	nan	nan	nan	nan	nan	nan	nan	
182	1.81	-979.35400390625	977.48095703125	-25.05037307739258	-981.7842407226562	1037.542602539062	35.53369522094727	-752.2075805664062	1209.66748046875	32.96768188476562	-985.23388671875	1154.995361328125	19.53475379943848	-934.44091796875	1401.493408203125	-1.370686650276184	-785.791259765625	1334.398803710938	20.77707672119141	-988.6395874023438	1265.762084960938	70.21977233886719	-935.1430053710938	1360.653686523438	-103.338623046875	-843.0694580078125	1377.76123046875	-148.1648254394531	-846.5374145507812	1259.136474609375	-219.9369812011719	-816.279541015625	1055.225341796875	-233.4486846923828	-888.7976684570312	1038.082885742188	-193.0539855957031	-718.195556640625	818.3837890625	-173.4202575683594	-746.494140625	805.2081909179688	-234.6996459960938	-795.4248046875	951.7747192382812	-237.6150360107422	-745.2673950195312	734.5156860351562	-227.9120025634766	-698.1477661132812	741.5907592773438	-186.454833984375	-890.3353271484375	1396.993286132812	165.1170806884766	-908.3739624023438	1338.664428710938	233.4158630371094	-914.0586547851562	1075.739990234375	295.6818542480469	-943.5078735351562	1060.76220703125	206.8464050292969	-780.6315307617188	860.2687377929688	272.6575927734375	-818.35302734375	842.1556396484375	337.0174865722656	-887.1937255859375	1009.643127441406	312.9900817871094	-745.135498046875	690.9876708984375	285.9969787597656	-741.3350219726562	763.7007446289062	290.2499389648438	-793	760.0684204101562	335.8048095703125	-902.305419921875	1600.575805664062	88.33246612548828	-735.3971557617188	1619.348022460938	-38.20169830322266	-742.0730590820312	1618.921997070312	63.13510131835938	-919.8978881835938	1594.833984375	-56.53719329833984	-892.6727294921875	926.9817504882812	-132.36865234375	-798.2799072265625	944.679931640625	171.6913146972656	-773.7647094726562	953.0296020507812	-70.62183380126953	-797.9739990234375	466.137939453125	-90.45022583007812	-815.00732421875	607.2017822265625	-112.0565795898438	-893.950927734375	45.09247589111328	-47.36582183837891	-842.3712768554688	246.0362396240234	-80.63626098632812	-686.08056640625	51.73407363891602	3.324521541595459	-752.5639038085938	38.21935653686523	49.41436004638672	-769.01611328125	41.87900543212891	-63.99223709106445	-923.2709350585938	43.91225051879883	22.66653823852539	-760.021728515625	472.3165588378906	196.4192352294922	-1097.189086914062	221.9392700195312	159.8773040771484	-826.2935180664062	371.9964904785156	185.8379669189453	-997.396484375	57.7830696105957	110.8666229248047	-1032.240966796875	101.3582153320312	69.82490539550781	-1063.393310546875	126.5761260986328	180.5113372802734	-1116.051025390625	266.9115295410156	110.7429656982422	-980.5826416015625	965.255126953125	103.9315414428711	-702.5524291992188	659.2606201171875	-165.0982055664062	-901.3233032226562	907.549560546875	211.4325103759766	-787.806396484375	713.3609619140625	215.3808898925781	nan	nan	nan	nan	nan	nan	nan	nan	nan	
183	1.82	-972.1592407226562	977.8677368164062	-25.03526496887207	-975.2127075195312	1038.643676757812	35.1086311340332	-744.6470336914062	1210.046020507812	32.91633605957031	-977.7313842773438	1155.711059570312	18.7808952331543	-926.5265502929688	1402.110229492188	-2.044782161712646	-778.0796508789062	1334.810668945312	20.58375549316406	-981.0528564453125	1266.410400390625	69.2088623046875	-927.0594482421875	1361.269409179688	-104.1100692749023	-834.887451171875	1378.350952148438	-148.4733428955078	-836.4464721679688	1259.800537109375	-220.3753356933594	-799.7384033203125	1057.138671875	-234.7600250244141	-872.7584838867188	1037.501586914062	-196.3187255859375	-696.440673828125	822.7724609375	-174.1936340332031	-722.184326171875	809.6009521484375	-236.6404876708984	-775.5812377929688	954.461669921875	-239.3717498779297	-718.813232421875	738.9441528320312	-230.8433990478516	-673.6483764648438	746.9855346679688	-187.2754058837891	-882.9895629882812	1397.460815429688	164.5929412841797	-901.700927734375	1339.3193359375	232.7293853759766	-910.4432983398438	1076.435302734375	294.1997985839844	-939.138916015625	1061.9609375	204.9975280761719	-781.6580200195312	857.89599609375	272.4461364746094	-820.3820190429688	840.9254150390625	336.9067993164062	-884.9554443359375	1009.958679199219	311.7233581542969	-750.340576171875	687.798828125	287.294189453125	-744.9100952148438	760.4541625976562	291.0376892089844	-796.90380859375	758.4341430664062	336.3721313476562	-894.077880859375	1601.349975585938	87.51194763183594	-726.5400390625	1619.168212890625	-38.14601135253906	-733.71142578125	1618.863891601562	63.17402648925781	-911.10791015625	1595.768310546875	-57.32205963134766	-885.8767700195312	926.9232177734375	-132.4560699462891	-790.5428466796875	946.4332885742188	170.9201354980469	-766.6122436523438	953.2366943359375	-71.48841094970703	-795.7762451171875	465.8310241699219	-90.20429992675781	-810.8027954101562	606.9852294921875	-111.5027160644531	-893.9049072265625	45.12073516845703	-47.308837890625	-841.4265747070312	245.9522705078125	-80.57185363769531	-686.1014404296875	51.65882873535156	3.396154642105103	-752.7896118164062	37.94891738891602	49.58228302001953	-769.0082397460938	41.8878059387207	-63.95895767211914	-923.3063354492188	43.97607421875	22.70650482177734	-740.4779663085938	476.1730041503906	196.4436645507812	-1072.774658203125	218.5403442382812	159.7807769775391	-804.8146362304688	374.460205078125	185.5283355712891	-967.097900390625	58.4521369934082	111.4797210693359	-1003.074523925781	100.3618011474609	70.13133239746094	-1034.7275390625	125.0895690917969	180.7669525146484	-1093.59912109375	262.5924987792969	110.5921020507812	-973.1611938476562	965.9866333007812	103.9569244384766	-676.0704345703125	664.2241821289062	-167.5846862792969	-893.2778930664062	909.1160278320312	211.4281311035156	-775.4391479492188	716.631591796875	215.6433715820312	nan	nan	nan	nan	nan	nan	nan	nan	nan	
184	1.83	-964.8984985351562	978.2341918945312	-24.96064758300781	-968.52294921875	1039.635131835938	34.90046691894531	-737.00830078125	1210.511840820312	32.70865631103516	-970.205810546875	1156.411743164062	18.20068740844727	-918.6407470703125	1402.684814453125	-2.639177322387695	-770.371337890625	1335.270385742188	20.32324028015137	-973.4636840820312	1267.03759765625	68.33521270751953	-919.0748291015625	1361.8515625	-104.7729110717773	-826.8876342773438	1379.039306640625	-148.7626800537109	-826.6787109375	1260.601928710938	-220.7662200927734	-783.6539916992188	1059.414184570312	-235.8182830810547	-856.880126953125	1037.2763671875	-199.0552825927734	-674.9407348632812	827.596435546875	-175.1007232666016	-698.4518432617188	814.5750122070312	-238.5292663574219	-756.2125854492188	957.6004638671875	-240.9149475097656	-692.9114379882812	744.0493774414062	-233.7886810302734	-649.4496459960938	752.8604736328125	-188.5134735107422	-875.5607299804688	1397.972412109375	164.0740356445312	-894.8983764648438	1340.0615234375	232.0681610107422	-906.79443359375	1077.24951171875	292.6703491210938	-934.5869750976562	1063.277099609375	203.0751342773438	-782.6793212890625	855.6946411132812	272.4463500976562	-822.6420288085938	839.8464965820312	336.9075927734375	-882.7528686523438	1010.430419921875	310.4518737792969	-755.8316040039062	684.7907104492188	288.8310852050781	-748.7040405273438	757.3773803710938	292.1370239257812	-801.1100463867188	756.9931640625	336.99951171875	-885.84228515625	1602.135375976562	86.7694091796875	-717.6630249023438	1618.906982421875	-38.01640701293945	-725.334228515625	1618.680297851562	63.30041885375977	-902.2969360351562	1596.767211914062	-58.03757095336914	-878.9825439453125	926.8234252929688	-132.4778900146484	-782.7706298828125	948.2158813476562	170.2196197509766	-759.4046020507812	953.3906860351562	-72.29379272460938	-793.5731201171875	465.5150451660156	-89.98995971679688	-806.6573486328125	606.7574462890625	-111.0458679199219	-893.8584594726562	45.14322280883789	-47.26786041259766	-840.4769287109375	245.8749389648438	-80.52817535400391	-686.1442260742188	51.58891677856445	3.456259965896606	-752.9932250976562	37.70645523071289	49.71946716308594	-769.0047607421875	41.89004516601562	-63.94063568115234	-923.3402709960938	44.04963302612305	22.73000144958496	-721.4669799804688	480.174072265625	196.3905792236328	-1047.70654296875	213.9077606201172	159.7233123779297	-783.549072265625	376.8098449707031	185.1570434570312	-935.550537109375	58.75481033325195	111.986083984375	-972.9691772460938	98.68212890625	70.288330078125	-1005.140380859375	122.6092987060547	180.9096221923828	-1070.619995117188	256.9110412597656	110.5857543945312	-965.6714477539062	966.774658203125	104.0470733642578	-649.8216552734375	669.75341796875	-170.4384613037109	-885.1983642578125	910.7907104492188	211.5075988769531	-763.3316650390625	720.092041015625	215.9241027832031	nan	nan	nan	nan	nan	nan	nan	nan	nan	
